<?xml version="1.0" encoding="utf-8"?>
<!-- Generator: Adobe Illustrator 16.0.0, SVG Export Plug-In . SVG Version: 6.00 Build 0)  -->
<!DOCTYPE svg PUBLIC "-//W3C//DTD SVG 1.1//EN" "http://www.w3.org/Graphics/SVG/1.1/DTD/svg11.dtd">
<svg version="1.1" id="Layer_1" xmlns="http://www.w3.org/2000/svg" xmlns:xlink="http://www.w3.org/1999/xlink" x="0px" y="0px"
	 width="1920px" height="800px" viewBox="0 -140.75 1920 800" enable-background="new 0 -140.75 1920 800" xml:space="preserve">
<g id="Layer_1_1_" display="none">
	
		<image display="inline" overflow="visible" enable-background="new    " width="1430" height="1096" xlink:href="A9D8F29E395FED31.png"  transform="matrix(0.4992 0 0 0.4992 432.3105 -10.0723)">
	</image>
</g>
<g id="Shapes">
	
		<linearGradient id="SVGID_1_" gradientUnits="userSpaceOnUse" x1="0" y1="351.25" x2="1920" y2="351.25" gradientTransform="matrix(1 0 0 1 0 -92)">
		<stop  offset="0" style="stop-color:#47A8B7"/>
		<stop  offset="1" style="stop-color:#1FC0BD"/>
	</linearGradient>
	<rect y="-140.75" fill="url(#SVGID_1_)" width="1920" height="800"/>
	
		<linearGradient id="SVGID_2_" gradientUnits="userSpaceOnUse" x1="1183.1787" y1="64.8701" x2="1183.1787" y2="313.4849" gradientTransform="matrix(1 0 0 1 0 -92)">
		<stop  offset="0" style="stop-color:#3F8EAA"/>
		<stop  offset="1" style="stop-color:#1FA6A8"/>
	</linearGradient>
	<polygon fill="url(#SVGID_2_)" points="1062.367,-27.13 1500.475,124.455 1000.496,221.485 865.883,195.875 	"/>
	
		<linearGradient id="SVGID_3_" gradientUnits="userSpaceOnUse" x1="237.0234" y1="295.3311" x2="625.3111" y2="967.8649" gradientTransform="matrix(1 0 0 1 0 -92)">
		<stop  offset="0" style="stop-color:#41C1C3"/>
		<stop  offset="0.806" style="stop-color:#76E5C4"/>
		<stop  offset="1" style="stop-color:#83EEC4"/>
	</linearGradient>
	<polygon fill="url(#SVGID_3_)" points="0,340.175 1000.496,659.25 0,659.25 	"/>
	<polygon fill="#4CCFC0" points="561.402,519.217 769.501,365.961 647.392,285.554 170.395,394.517 	"/>
	
		<linearGradient id="SVGID_4_" gradientUnits="userSpaceOnUse" x1="461.0488" y1="191.2109" x2="110.0425" y2="542.2173" gradientTransform="matrix(1 0 0 1 0 -92)">
		<stop  offset="0" style="stop-color:#47A8B7"/>
		<stop  offset="1" style="stop-color:#1FC0BD"/>
	</linearGradient>
	<polygon fill="url(#SVGID_4_)" points="588.173,246.561 647.392,285.554 170.395,394.517 0,340.175 0,187.574 	"/>
	
		<linearGradient id="SVGID_5_" gradientUnits="userSpaceOnUse" x1="65.626" y1="-86.6382" x2="380.3794" y2="458.5308" gradientTransform="matrix(1 0 0 1 0 -92)">
		<stop  offset="0" style="stop-color:#47A8B7"/>
		<stop  offset="1" style="stop-color:#1FC0BD"/>
	</linearGradient>
	<polyline fill="url(#SVGID_5_)" points="588.173,246.561 0,-140.75 0,187.574 588.173,246.561 	"/>
	<polygon fill="#53DABD" points="1000.496,659.25 561.402,519.217 769.501,365.961 1214.889,659.25 	"/>
	
		<linearGradient id="SVGID_6_" gradientUnits="userSpaceOnUse" x1="760.7031" y1="-22.4717" x2="1136.3" y2="628.0807" gradientTransform="matrix(1 0 0 1 0 -92)">
		<stop  offset="0" style="stop-color:#41C1C3"/>
		<stop  offset="1" style="stop-color:#59DFC2"/>
	</linearGradient>
	<polyline fill="url(#SVGID_6_)" points="376.377,107.419 1520.625,314.19 1000.496,519.217 376.377,107.419 	"/>
	<polygon fill="#5AE8C8" points="1071.96,566.765 1920,519.217 1920,659.25 1214.889,659.25 	"/>
	<polygon fill="#46C2B8" points="1138.66,464.755 1920,423.411 1920,354.048 1710.32,239.417 	"/>
	<polygon fill="#52D8C0" points="1920,423.411 1920,519.217 1071.96,566.765 1000.496,519.217 1138.66,464.755 	"/>
	<polygon fill="#3EB3BA" points="1520.625,314.19 1767.543,216.861 1500.475,124.455 1000.496,221.485 	"/>
	
		<linearGradient id="SVGID_7_" gradientUnits="userSpaceOnUse" x1="538.7646" y1="44.6479" x2="538.7646" y2="287.2349" gradientTransform="matrix(1 0 0 1 0 -92)">
		<stop  offset="0" style="stop-color:#308DB3"/>
		<stop  offset="0.4694" style="stop-color:#1FA9C0"/>
	</linearGradient>
	<polygon fill="url(#SVGID_7_)" points="376.377,108.961 141.837,-47.352 935.692,113.112 862.332,195.235 	"/>
	<polygon fill="#2A8EAF" points="1062.367,-27.13 1767.543,216.861 1920,187.574 1920,1.343 1162.481,-140.75 	"/>
	
		<linearGradient id="SVGID_8_" gradientUnits="userSpaceOnUse" x1="1162.4814" y1="22.2969" x2="1920" y2="22.2969" gradientTransform="matrix(1 0 0 1 0 -92)">
		<stop  offset="0" style="stop-color:#006994"/>
		<stop  offset="1" style="stop-color:#1F87A8"/>
	</linearGradient>
	<polygon fill="url(#SVGID_8_)" points="1162.481,-140.75 1920,1.343 1920,-140.75 	"/>
	
		<linearGradient id="SVGID_9_" gradientUnits="userSpaceOnUse" x1="1710.3203" y1="362.8105" x2="1920" y2="362.8105" gradientTransform="matrix(1 0 0 1 0 -92)">
		<stop  offset="0" style="stop-color:#47A8B7"/>
		<stop  offset="1" style="stop-color:#1FC0BD"/>
	</linearGradient>
	<polyline fill="url(#SVGID_9_)" points="1920,354.048 1920,187.574 1767.543,216.861 1710.32,239.417 1920,354.048 	"/>
	
		<linearGradient id="SVGID_10_" gradientUnits="userSpaceOnUse" x1="782.8164" y1="-8.8389" x2="782.8164" y2="205.1123" gradientTransform="matrix(1 0 0 1 0 -92)">
		<stop  offset="0" style="stop-color:#308DB3"/>
		<stop  offset="1" style="stop-color:#1FA9C0"/>
	</linearGradient>
	<polygon fill="url(#SVGID_10_)" points="438.312,11.851 935.692,113.112 1127.321,-100.839 	"/>
	<polygon fill="#288AB1" points="1162.481,-140.75 0,-140.75 141.837,-47.352 438.312,11.851 1127.321,-100.839 	"/>
	
		<linearGradient id="SVGID_11_" gradientUnits="userSpaceOnUse" x1="960" y1="-48.75" x2="959.9999" y2="751.2505" gradientTransform="matrix(1 0 0 1 0 -92)">
		<stop  offset="0" style="stop-color:#1C76A6"/>
		<stop  offset="0.5634" style="stop-color:#3EB5B9"/>
		<stop  offset="1" style="stop-color:#5AE8C8"/>
	</linearGradient>
	<rect y="-140.75" opacity="0.6" fill="url(#SVGID_11_)" enable-background="new    " width="1920" height="800"/>
</g>
<g id="Guides" display="none">
	<line display="inline" fill="none" x1="437.254" y1="0" x2="692.254" y2="519"/>
	
		<rect x="437.254" y="4.288" display="inline" opacity="0.1" fill="#FFFFFF" enable-background="new    " width="403" height="519"/>
	<polyline display="inline" fill="none" points="618.254,221 681.254,0 938.254,149 	"/>
	<polyline display="inline" fill="none" points="647.254,428.153 808.254,232 660.242,73.712 	"/>
	<line display="inline" fill="none" x1="647.254" y1="235" x2="752.199" y2="172.053"/>
</g>
</svg>
