<?xml version="1.0" encoding="utf-8"?>
<!-- Generator: Adobe Illustrator 16.0.0, SVG Export Plug-In . SVG Version: 6.00 Build 0)  -->
<!DOCTYPE svg PUBLIC "-//W3C//DTD SVG 1.1//EN" "http://www.w3.org/Graphics/SVG/1.1/DTD/svg11.dtd">
<svg version="1.1" xmlns="http://www.w3.org/2000/svg" xmlns:xlink="http://www.w3.org/1999/xlink" x="0px" y="0px" width="403px"
	 height="519px" viewBox="0 0 403 519" enable-background="new 0 0 403 519" xml:space="preserve">
<g id="Layer_1" display="none">
	
		<image display="inline" overflow="visible" width="1428" height="1094" xlink:href="A9D8F29E395FED31.png"  transform="matrix(0.5 0 0 0.5 432.2544 -9.9995)">
	</image>
</g>
<g id="Shapes">
	<linearGradient id="SVGID_1_" gradientUnits="userSpaceOnUse" x1="0" y1="259.5005" x2="403.0005" y2="259.5005">
		<stop  offset="0" style="stop-color:#47A8B7"/>
		<stop  offset="1" style="stop-color:#1FC0BD"/>
	</linearGradient>
	<rect fill="url(#SVGID_1_)" width="403" height="519"/>
	<linearGradient id="SVGID_2_" gradientUnits="userSpaceOnUse" x1="248.3447" y1="73.7114" x2="248.3447" y2="235">
		<stop  offset="0" style="stop-color:#3F8EAA"/>
		<stop  offset="1" style="stop-color:#1FA6A8"/>
	</linearGradient>
	<polygon fill="url(#SVGID_2_)" points="222.987,73.711 314.944,172.052 210,235 181.745,218.386 	"/>
	<linearGradient id="SVGID_3_" gradientUnits="userSpaceOnUse" x1="-10.8833" y1="318.2847" x2="131.2505" y2="564.4677">
		<stop  offset="0" style="stop-color:#41C1C3"/>
		<stop  offset="0.806" style="stop-color:#76E5C4"/>
		<stop  offset="1" style="stop-color:#83EEC4"/>
	</linearGradient>
	<polygon fill="url(#SVGID_3_)" points="0,312 210,519 0,519 	"/>
	<polygon fill="#4CCFC0" points="117.836,428.153 161.515,328.729 135.885,276.565 35.765,347.254 	"/>
	<linearGradient id="SVGID_4_" gradientUnits="userSpaceOnUse" x1="92.4565" y1="220.269" x2="0.3624" y2="312.3631">
		<stop  offset="0" style="stop-color:#47A8B7"/>
		<stop  offset="1" style="stop-color:#1FC0BD"/>
	</linearGradient>
	<polygon fill="url(#SVGID_4_)" points="123.455,251.268 135.885,276.565 35.765,347.254 0,312 0,213 	"/>
	<linearGradient id="SVGID_5_" gradientUnits="userSpaceOnUse" x1="-46.1157" y1="26.6245" x2="93.5503" y2="268.5331">
		<stop  offset="0" style="stop-color:#47A8B7"/>
		<stop  offset="1" style="stop-color:#1FC0BD"/>
	</linearGradient>
	<polyline fill="url(#SVGID_5_)" points="123.455,251.268 0,0 0,213 123.455,251.268 	"/>
	<polygon fill="#53DABD" points="210,519 117.836,428.153 161.515,328.729 255,519 	"/>
	<linearGradient id="SVGID_6_" gradientUnits="userSpaceOnUse" x1="131.3076" y1="130.8013" x2="279.7383" y2="387.8907">
		<stop  offset="0" style="stop-color:#41C1C3"/>
		<stop  offset="1" style="stop-color:#59DFC2"/>
	</linearGradient>
	<polyline fill="url(#SVGID_6_)" points="79,161 319.173,295.143 210,428.153 79,161 	"/>
	<polygon fill="#5AE8C8" points="225,459 403,428.153 403,519 255,519 	"/>
	<polygon fill="#46C2B8" points="239,392.821 403,366 403,321 358.989,246.633 	"/>
	<polygon fill="#52D8C0" points="403,366 403,428.153 225,459 210,428.153 239,392.821 	"/>
	<polygon fill="#3EB3BA" points="319.173,295.143 371,232 314.944,172.052 210,235 	"/>
	<linearGradient id="SVGID_7_" gradientUnits="userSpaceOnUse" x1="113.085" y1="60.5923" x2="113.085" y2="217.9697">
		<stop  offset="0" style="stop-color:#308DB3"/>
		<stop  offset="0.4694" style="stop-color:#1FA9C0"/>
	</linearGradient>
	<polygon fill="url(#SVGID_7_)" points="79,162 29.771,60.592 196.398,164.693 181,217.97 	"/>
	<polygon fill="#2A8EAF" points="222.987,73.711 371,232 403,213 403,92.183 244,0 	"/>
	<linearGradient id="SVGID_8_" gradientUnits="userSpaceOnUse" x1="244" y1="46.0913" x2="403.0005" y2="46.0913">
		<stop  offset="0" style="stop-color:#006994"/>
		<stop  offset="1" style="stop-color:#1F87A8"/>
	</linearGradient>
	<polygon fill="url(#SVGID_8_)" points="244,0 403,92.183 403,0 	"/>
	<linearGradient id="SVGID_9_" gradientUnits="userSpaceOnUse" x1="358.9888" y1="267.0005" x2="403.0005" y2="267.0005">
		<stop  offset="0" style="stop-color:#47A8B7"/>
		<stop  offset="1" style="stop-color:#1FC0BD"/>
	</linearGradient>
	<polyline fill="url(#SVGID_9_)" points="403,321 403,213 371,232 358.989,246.633 403,321 	"/>
	<linearGradient id="SVGID_10_" gradientUnits="userSpaceOnUse" x1="164.3101" y1="25.8921" x2="164.3101" y2="164.6934">
		<stop  offset="0" style="stop-color:#308DB3"/>
		<stop  offset="1" style="stop-color:#1FA9C0"/>
	</linearGradient>
	<polygon fill="url(#SVGID_10_)" points="92,99 196.398,164.693 236.62,25.892 	"/>
	<polygon fill="#288AB1" points="244,0 0,0 29.771,60.592 92,99 236.62,25.892 	"/>
	<linearGradient id="SVGID_11_" gradientUnits="userSpaceOnUse" x1="201.5005" y1="4.882812e-04" x2="201.5005" y2="519.001">
		<stop  offset="0" style="stop-color:#1C76A6"/>
		<stop  offset="0.5634" style="stop-color:#3EB5B9"/>
		<stop  offset="1" style="stop-color:#5AE8C8"/>
	</linearGradient>
	<rect x="0" y="0" opacity="0.6" fill="url(#SVGID_11_)" width="403" height="519"/>
</g>
<g id="Guides" display="none">
	<line display="inline" fill="none" x1="437.254" y1="0" x2="692.254" y2="519"/>
	<rect x="437.254" y="4.288" display="inline" opacity="0.1" fill="#FFFFFF" width="403" height="519"/>
	<polyline display="inline" fill="none" points="618.254,221 681.254,0 938.254,149 	"/>
	<polyline display="inline" fill="none" points="647.254,428.153 808.254,232 660.242,73.712 	"/>
	<line display="inline" fill="none" x1="647.254" y1="235" x2="752.199" y2="172.053"/>
</g>
</svg>
