<?xml version="1.0" standalone="no"?>
<!DOCTYPE svg PUBLIC "-//W3C//DTD SVG 20010904//EN"
 "http://www.w3.org/TR/2001/REC-SVG-20010904/DTD/svg10.dtd">
<svg version="1.0" xmlns="http://www.w3.org/2000/svg"
 width="1083.000000pt" height="1083.000000pt" viewBox="0 0 1083.000000 1083.000000"
 preserveAspectRatio="xMidYMid meet">
<metadata>
Created by potrace 1.11, written by Peter Selinger 2001-2013
</metadata>
<g transform="translate(0.000000,1083.000000) scale(0.100000,-0.100000)"
fill="#000000" stroke="none">
<path d="M1349 10826 c-2 -2 -29 -7 -59 -10 -211 -25 -467 -127 -658 -262
-200 -143 -378 -353 -483 -572 -38 -79 -103 -260 -113 -314 -2 -13 -7 -41 -11
-63 -4 -22 -10 -49 -14 -60 -3 -11 -7 -1856 -7 -4100 -2 -4385 -5 -4151 47
-4340 25 -88 74 -217 113 -293 91 -180 273 -393 445 -521 156 -116 379 -220
551 -256 37 -8 79 -17 95 -22 17 -4 1879 -9 4140 -9 3552 -2 4120 0 4185 12
41 8 88 17 105 20 95 18 311 108 424 176 84 51 221 161 293 234 232 237 374
527 418 849 13 95 10 8231 -3 8280 -5 16 -14 58 -22 95 -51 244 -204 520 -395
711 -99 99 -125 121 -241 199 -134 91 -369 193 -494 215 -16 3 -42 7 -56 10
-15 3 -55 9 -90 14 -60 9 -8160 16 -8170 7z"/>
</g>
</svg>
